{"title":"Geordie Shore S09 E04 WEB-DL","uid":11517713,"size":438705242,"categoryP":"video","categoryS":"tv_shows","magnet":"?xt=urn:btih:e52577a3658b5a77669583116de35e8689c68dba&amp;dn=Geordie+Shore+S09+E04+WEB-DL&amp;tr=udp%3A%2F%2Ftracker.openbittorrent.com%3A80&amp;tr=udp%3A%2F%2Fopen.demonii.com%3A1337&amp;tr=udp%3A%2F%2Ftracker.coppersurfer.tk%3A6969&amp;tr=udp%3A%2F%2Fexodus.desync.com%3A6969","seeders":7,"leechers":0,"uploader":"jmanwf","files":-1,"time":1416457709,"description":"Vicky is in trouble with Boss Anna after making a mess of the Tash on Tours job in Paris. As a punishment Anna asks Vicky to make 200 origami swans for a Japanese-themed event.\n\n\nFormat : MPEG-4\nFormat profile : Base Media\nCodec ID : isom\nFile size : 418 MiB\nDuration : 42mn 23s\nOverall bit rate mode : Variable\nOverall bit rate : 1 380 Kbps\nEncoded date : UTC 2014-11-19 05:14:14\nTagged date : UTC 2014-11-19 05:14:14\n\nVideo\nID : 1\nFormat : AVC\nFormat/Info : Advanced Video Codec\nFormat profile : &lt;a class=&quot;__cf_email__&quot; href=&quot;/cdn-cgi/l/email-protection&quot; data-cfemail=&quot;511c30383f111d657f61&quot;&gt;[email&amp;#160;protected]&lt;/a&gt;&lt;script cf-hash='f9e31' type=&quot;text/javascript&quot;&gt;\n/* &lt;![CDATA[ */!function(){try{var t=&quot;currentScript&quot;in document?document.currentScript:function(){for(var t=document.getElementsByTagName(&quot;script&quot;),e=t.length;e--;)if(t[e].getAttribute(&quot;cf-hash&quot;))return t[e]}();if(t&amp;&amp;t.previousSibling){var e,r,n,i,c=t.previousSibling,a=c.getAttribute(&quot;data-cfemail&quot;);if(a){for(e=&quot;&quot;,r=parseInt(a.substr(0,2),16),n=2;a.length-n;n+=2)i=parseInt(a.substr(n,2),16)^r,e+=String.fromCharCode(i);e=document.createTextNode(e),c.parentNode.replaceChild(e,c)}}}catch(u){}}();/* ]]&gt; */&lt;/script&gt;\nFormat settings, CABAC : Yes\nFormat settings, ReFrames : 5 frames\nCodec ID : avc1\nCodec ID/Info : Advanced Video Coding\nDuration : 42mn 23s\nBit rate : 1 264 Kbps\nMaximum bit rate : 4 510 Kbps\nWidth : 852 pixels\nHeight : 480 pixels\nDisplay aspect ratio : 16:9\nFrame rate mode : Constant\nFrame rate : 25.000 fps\nColor space : YUV\nChroma subsampling : 4:2:0\nBit depth : 8 bits\nScan type : Progressive\nBits/(Pixel*Frame) : 0.124\nStream size : 383 MiB (92%)\nWriting library : x264 core 130 r2273 b3065e6\n\nEncoded date : UTC 2014-11-19 05:14:14\nTagged date : UTC 2014-11-19 05:14:21\nColor primaries : BT.709\nTransfer characteristics : BT.709\nMatrix coefficients : BT.709\n\nAudio\nID : 2\nFormat : AAC\nFormat/Info : Advanced Audio Codec\nFormat profile : LC\nCodec ID : 40\nDuration : 42mn 23s\nBit rate mode : Variable\nBit rate : 112 Kbps\nMaximum bit rate : 219 Kbps\nChannel(s) : 2 channels\nChannel positions : Front: L R\nSampling rate : 48.0 KHz\nCompression mode : Lossy\nStream size : 33.9 MiB (8%)\nEncoded date : UTC 2014-11-19 05:14:19\nTagged date : UTC 2014-11-19 05:14:21","torrent":{"xt":"urn:btih:e52577a3658b5a77669583116de35e8689c68dba","amp;dn":"Geordie+Shore+S09+E04+WEB-DL","amp;tr":["udp%3A%2F%2Ftracker.openbittorrent.com%3A80","udp%3A%2F%2Fopen.demonii.com%3A1337","udp%3A%2F%2Ftracker.coppersurfer.tk%3A6969","udp%3A%2F%2Fexodus.desync.com%3A6969"],"infoHash":"e52577a3658b5a77669583116de35e8689c68dba","infoHashBuffer":{"type":"Buffer","data":[229,37,119,163,101,139,90,119,102,149,131,17,109,227,94,134,137,198,141,186]},"announce":[],"urlList":[]}}